Coordinates
version=1
nRows=11
nColumns=40
inDegrees=yes

Units are S.I. units (second, meters, Newtons, ...)
Angles are in degrees.

endheader
time	pelvis_tilt	pelvis_list	pelvis_rotation	pelvis_tx	pelvis_ty	pelvis_tz	hip_flexion_r	hip_adduction_r	hip_rotation_r	knee_angle_r	knee_angle_r_beta	ankle_angle_r	subtalar_angle_r	mtp_angle_r	hip_flexion_l	hip_adduction_l	hip_rotation_l	knee_angle_l	knee_angle_l_beta	ankle_angle_l	subtalar_angle_l	mtp_angle_l	lumbar_extension	lumbar_bending	lumbar_rotation	arm_flex_r	arm_add_r	arm_rot_r	elbow_flex_r	pro_sup_r	wrist_flex_r	wrist_dev_r	arm_flex_l	arm_add_l	arm_rot_l	elbow_flex_l	pro_sup_l	wrist_flex_l	wrist_dev_l
     38.53750000	     -7.67177558	     -6.52702909	     -0.56502052	      0.99614115	      0.91638877	      0.47453885	      0.65738959	      1.18458898	    -15.32255034	     23.26921708	     23.26921708	     15.43686278	      5.57053829	     -9.22873103	     31.98296500	     -9.67224336	     -3.32748657	     27.45147639	     27.45147639	      6.76869596	    -14.49091295	      6.88621730	     -9.24056227	      5.47164836	      5.32648336	     36.95791226	    -18.91002383	      0.11416844	    103.27558493	     44.32968500	      0.00000000	      0.00000000	    -15.10832219	     -7.36226497	      3.75203492	     29.16543604	     45.03646731	      0.00000000	      0.00000000
     38.54857143	     -7.76853290	     -6.41984214	     -0.75736095	      0.99639097	      0.91779871	      0.47234415	      1.99940193	      0.45430459	    -14.90862935	     26.39364170	     26.39364170	     14.34601167	      4.06582196	    -10.09796959	     31.26460975	     -9.56874702	     -3.84502684	     27.16545845	     27.16545845	      7.32892796	    -14.11731674	      6.56131661	     -9.21780983	      5.36713175	      4.99935017	     35.26156231	    -19.03174916	      0.22754920	    102.99001555	     44.33542439	      0.00000000	      0.00000000	    -14.08096168	     -7.59703480	      3.70179903	     29.64232579	     45.06543096	      0.00000000	      0.00000000
     38.55964286	     -7.71634605	     -6.46933326	     -0.86939248	      0.99665077	      0.91934674	      0.47029058	      3.24479460	     -0.07577610	    -14.56630732	     29.56851435	     29.56851435	     13.05094244	      2.50952364	    -10.69389892	     30.37364751	     -9.56458618	     -4.12962668	     26.81499472	     26.81499472	      7.91866170	    -13.77031307	      6.23447855	     -9.39501353	      5.40660463	      4.61527290	     33.50082983	    -19.03232398	      0.40030385	    102.62909002	     44.33876167	      0.00000000	      0.00000000	    -12.97207716	     -7.82941636	      3.62991628	     30.18109058	     45.09669312	      0.00000000	      0.00000000
     38.57071429	     -8.05456347	     -6.36279645	     -1.19285469	      0.99629557	      0.92020386	      0.46870906	      5.35820186	     -0.48891997	    -13.17366817	     33.19245345	     33.19245345	     10.91903706	     -1.20813589	    -12.53828907	     29.90464756	     -9.55588167	     -4.85961704	     26.44542863	     26.44542863	      8.08561971	    -13.30815517	      5.34965121	     -9.22825564	      5.22833955	      4.88361449	     31.12113359	    -19.66342817	     -0.32747718	    102.79837662	     44.37348392	      0.00000000	      0.00000000	    -11.75274689	     -8.26270376	      3.45027338	     31.37201658	     45.16063747	      0.00000000	      0.00000000
     38.58178571	     -8.05108842	     -6.15066154	     -1.38727543	      0.99615900	      0.92133188	      0.46692432	      7.15710693	     -1.28014467	    -12.71160922	     37.02026992	     37.02026992	      9.37206396	     -3.08099347	    -12.80685714	     29.05975477	     -9.33149020	     -5.39790875	     26.08583242	     26.08583242	      8.50214970	    -13.02275963	      5.01319594	     -9.36724319	      4.97845431	      4.49022114	     29.25970139	    -19.52981328	     -0.09040351	    102.17194780	     44.38353128	      0.00000000	      0.00000000	    -10.58589127	     -8.70262022	      3.35600220	     31.94016049	     45.19592978	      0.00000000	      0.00000000
     38.59285714	     -8.23435755	     -6.09719019	     -1.63232323	      0.99561958	      0.92212236	      0.46553012	      9.34637823	     -1.59928076	    -11.70770065	     40.89310493	     40.89310493	      7.60962535	     -6.07109766	    -12.48519096	     28.44986871	     -9.28772641	     -5.81294451	     25.69699858	     25.69699858	      8.75872228	    -12.77205594	      4.47644371	     -9.34972107	      4.87051061	      4.34933569	     27.21264077	    -19.69695664	     -0.20106129	    101.27665286	     44.41731319	      0.00000000	      0.00000000	     -9.35322158	     -9.15085883	      3.21595692	     32.90479874	     45.24235368	      0.00000000	      0.00000000
     38.60392857	     -8.24308150	     -5.90422009	     -1.87253306	      0.99512667	      0.92289694	      0.46416959	     11.42900479	     -2.11536856	    -10.91064558	     44.78841732	     44.78841732	      6.04252994	     -8.34472112	    -11.95789677	     27.67127583	     -9.09131185	     -6.25884611	     25.37661797	     25.37661797	      9.13644621	    -12.61125964	      4.05377012	     -9.51914582	      4.61597440	      4.01555977	     25.25670110	    -19.56337386	     -0.09408765	    100.38222786	     44.44009787	      0.00000000	      0.00000000	     -8.07182792	     -9.69222351	      3.07972535	     33.73243670	     45.28509507	      0.00000000	      0.00000000
     38.61500000	     -8.23656903	     -5.75255100	     -2.06109537	      0.99448175	      0.92359537	      0.46288086	     13.55620170	     -2.46220332	    -10.07208043	     48.55774714	     48.55774714	      4.55676335	    -10.61655206	    -11.06801113	     26.94208364	     -8.91139787	     -6.59038989	     25.11416693	     25.11416693	      9.42411838	    -12.49117045	      3.66430129	     -9.71512218	      4.43221868	      3.72216368	     23.25345327	    -19.42718993	     -0.01945752	     99.26622382	     44.46992208	      0.00000000	      0.00000000	     -6.66442719	    -10.24640558	      2.93297877	     34.68168186	     45.33034686	      0.00000000	      0.00000000
     38.62607143	     -8.29270952	     -5.65788799	     -2.29665335	      0.99371367	      0.92415507	      0.46179078	     15.80086146	     -2.59486076	     -9.13992509	     52.14879548	     52.14879548	      3.30818483	    -12.73273844	     -9.67981143	     26.26904540	     -8.79430912	     -6.87154401	     24.80958085	     24.80958085	      9.70200030	    -12.46483845	      3.21506319	     -9.85071597	      4.32876933	      3.56084903	     21.21045381	    -19.36866756	     -0.16541248	     97.82955394	     44.51784807	      0.00000000	      0.00000000	     -5.29931478	    -10.81450512	      2.79005607	     35.82786833	     45.37601759	      0.00000000	      0.00000000
     38.63714286	     -8.24233997	     -5.52121912	     -2.48275103	      0.99304380	      0.92470479	      0.46068177	     17.92086173	     -2.77001485	     -8.38019184	     55.51992509	     55.51992509	      2.38391039	    -14.34498897	     -8.34362458	     25.52560147	     -8.61441135	     -7.12216449	     24.58457818	     24.58457818	      9.99168594	    -12.48362915	      2.80838389	    -10.04328650	      4.22227657	      3.34471137	     19.19021246	    -19.13487532	     -0.26532769	     96.30902321	     44.56607791	      0.00000000	      0.00000000	     -3.82046653	    -11.43324959	      2.66033179	     36.98932106	     45.42092267	      0.00000000	      0.00000000
     38.64821429	     -8.18186012	     -5.49247530	     -2.64250931	      0.99221994	      0.92525627	      0.45967119	     20.22971683	     -2.77185933	     -7.66579193	     59.06939763	     59.06939763	      3.86937106	    -14.19783282	     -0.70375468	     24.72632481	     -8.50609678	     -7.22874550	     24.17657502	     24.17657502	      9.63297730	    -12.88353126	      1.04384036	    -10.34922834	      4.18100428	      3.21328468	     17.20500542	    -18.39895859	     -1.64594437	     93.97612891	     44.72071876	      0.00000000	      0.00000000	     -2.84567987	    -12.44704374	      3.58556127	     40.03198609	     45.41496963	      0.00000000	      0.00000000
